<?xml version="1.0" encoding="UTF-8" standalone="no"?>
<!-- Created with Inkscape (http://www.inkscape.org/) -->

<svg
   width="3000mm"
   height="3000mm"
   viewBox="0 0 3000 3000"
   version="1.1"
   id="svg1"
   sodipodi:docname="R13-Logo-Final7.svg"
   inkscape:version="1.4 (86a8ad7, 2024-10-11)"
   inkscape:export-filename="C:\Users\salo\Techmate\Graphics\R13_logo_base.svg"
   inkscape:export-xdpi="10.16"
   inkscape:export-ydpi="10.16"
   xml:space="preserve"
   xmlns:inkscape="http://www.inkscape.org/namespaces/inkscape"
   xmlns:sodipodi="http://sodipodi.sourceforge.net/DTD/sodipodi-0.dtd"
   xmlns="http://www.w3.org/2000/svg"
   xmlns:svg="http://www.w3.org/2000/svg"><sodipodi:namedview
     id="namedview1"
     pagecolor="#ffffff"
     bordercolor="#717171"
     borderopacity="0.24705882"
     inkscape:showpageshadow="2"
     inkscape:pageopacity="0.0"
     inkscape:pagecheckerboard="0"
     inkscape:deskcolor="#6f6f6f"
     inkscape:document-units="px"
     inkscape:zoom="0.028284271"
     inkscape:cx="5674.5319"
     inkscape:cy="8785.8018"
     inkscape:window-width="1920"
     inkscape:window-height="1009"
     inkscape:window-x="1912"
     inkscape:window-y="-8"
     inkscape:window-maximized="1"
     inkscape:current-layer="g16"
     showguides="false"
     showgrid="false"><inkscape:page
       x="0"
       y="0"
       width="3000"
       height="3000"
       id="page2"
       margin="0"
       bleed="0" /><sodipodi:guide
       position="1293.273,998.22298"
       orientation="0,-1"
       id="guide3"
       inkscape:locked="false" /><sodipodi:guide
       position="2423.5016,1265.8872"
       orientation="0,-1"
       id="guide10"
       inkscape:locked="false" /><sodipodi:guide
       position="1857.0768,998.22298"
       orientation="1,0"
       id="guide11"
       inkscape:locked="false" /><sodipodi:guide
       position="1390.7778,1598.2822"
       orientation="0,-1"
       id="guide12"
       inkscape:locked="false" /><sodipodi:guide
       position="1786.7643,2001.7776"
       orientation="0,1"
       id="guide13"
       inkscape:locked="false" /><sodipodi:guide
       position="2072.7668,1499.2954"
       orientation="0,-1"
       id="guide14"
       inkscape:locked="false" /><sodipodi:guide
       position="2171.9824,1443.4125"
       orientation="0,-1"
       id="guide18"
       inkscape:locked="false" /><sodipodi:guide
       position="2171.9824,1557.1372"
       orientation="0,-1"
       id="guide19"
       inkscape:locked="false" /><sodipodi:guide
       position="1613.6397,2011.7777"
       orientation="0,-1"
       id="guide20"
       inkscape:locked="false" /><sodipodi:guide
       position="1449.8222,1719.4104"
       orientation="0,-1"
       id="guide22"
       inkscape:locked="false" /></sodipodi:namedview><defs
     id="defs1" /><g
     inkscape:groupmode="layer"
     id="g17"
     inkscape:label="Logo1"
     transform="translate(5862.8935,152.59379)"><g
       inkscape:groupmode="layer"
       id="g16"
       inkscape:label="R13"
       transform="translate(0,264.92733)"
       style="display:inline"><g
         id="g22"
         style="display:inline;stroke:#db9f54;stroke-width:0;stroke-dasharray:none;stroke-opacity:1"
         transform="matrix(1.0767566,0,0,1.0767566,313.07612,-80.375653)"><path
           id="path21"
           style="fill:#131313;fill-opacity:1;stroke:#db9f54;stroke-width:0;stroke-dasharray:none;stroke-opacity:1"
           d="m -5354.6796,580.70112 -163.8241,5.2e-4 v 163.82359 995.41517 l 272.6149,-155.6845 v -296.0233 h 120.2226 l 461.1093,296.0233 h 480.8957 l -5e-4,-6e-4 h 4.4654 116.9308 V 846.8549 580.70112 h -257.2266 l -112.188,272.36632 h 52.1508 44.6489 l -0.4625,623.73656 0.014,3.0825 -336.9422,-231.8644 c 22.1059,-10.9361 43.25,-23.8342 63.3796,-38.9128 25.5764,-19.1591 47.7406,-41.8764 66.6925,-68.0822 19.8668,-27.2876 35.108,-57.9905 46.0959,-91.7608 11.4139,-35.0799 16.7173,-73.69131 16.7173,-115.11441 v -104.7781 c 0,-25.7903 -4.7118,-52.25571 -13.2317,-79.03031 -8.9202,-29.4786 -23.7469,-56.34268 -44.0831,-80.76768 -21.0767,-26.2885 -47.9343,-47.11438 -79.7962,-63.05248 -35.0955,-17.9931 -75.6532,-25.82013 -119.6764,-25.82013 z m 1348.8629,0 v 272.36683 l 567.4888,1.40974 -1.064,113.72639 h -350.7346 v 229.95852 l 350.7346,-1.4097 v 119.8387 h -566.4248 v 267.6643 h 659.0962 c 100.8541,0 179.9378,-89.7942 179.9378,-193.5593 v -229.3901 c -37.8839,-40.6234 -78.3048,-78.8277 -78.3048,-78.8277 0,0 40.4209,-42.2994 78.3048,-78.8273 V 784.31711 c 0,-104.7596 -80.3211,-203.61495 -183.3046,-203.61495 z m -1240.0726,272.61126 h 494.7072 v 80.83796 c 0,16.2186 -2.5926,28.86798 -6.7474,38.97488 -4.337,10.1318 -9.8945,17.84518 -17.5834,24.77678 l -0.3162,0.28371 -0.3085,0.29145 c -7.647,7.13174 -17.083,13.17524 -29.5719,18.21444 -11.6935,4.4837 -25.4309,7.6034 -41.6083,9.0015 h -398.5715 z"
           sodipodi:nodetypes="cccccccccccccccccccccscssscccccccccccccccsscccsccccscccccccc" /></g></g></g></svg>
